<?xml version="1.0" encoding="iso-8859-1"?>
<!-- Generator: Adobe Illustrator 18.0.0, SVG Export Plug-In . SVG Version: 6.00 Build 0)  -->
<!DOCTYPE svg PUBLIC "-//W3C//DTD SVG 1.1//EN" "http://www.w3.org/Graphics/SVG/1.1/DTD/svg11.dtd">
<svg version="1.1" id="Capa_1" xmlns="http://www.w3.org/2000/svg" xmlns:xlink="http://www.w3.org/1999/xlink" x="0px" y="0px"
	 viewBox="0 0 53.345 53.345" style="enable-background:new 0 0 53.345 53.345;" xml:space="preserve">
<g>
	<path d="M4.572,30.88h6.13l4.733-10.414c0.165-0.365,0.549-0.601,0.934-0.586c0.4,0.009,0.756,0.256,0.905,0.628l5.219,13.047
		l3.979-7.162c0.174-0.313,0.501-0.509,0.859-0.514c0.393,0.004,0.69,0.181,0.874,0.488l1.688,2.837l3.474-16.531
		c0.1-0.472,0.489-0.81,1.004-0.794c0.482,0.012,0.887,0.367,0.962,0.844l2.867,18.156h10.572c1.919-2.595,3.297-5.502,4.029-8.603
		c0.768-3.254,0.515-5.243,0.454-5.616c-0.777-8.567-6.838-14.78-14.424-14.78c-4.601,0-8.965,2.296-11.675,6.143
		c-0.212,0.301-0.483,0.346-0.626,0.346c-0.144,0-0.417-0.046-0.627-0.352c-2.671-3.9-6.823-6.137-11.393-6.137
		c-7.586,0-13.646,6.213-14.424,14.78c-0.061,0.373-0.313,2.362,0.454,5.615C1.275,25.376,2.653,28.284,4.572,30.88z"/>
	<path d="M37.346,32.88c-0.492,0-0.911-0.358-0.987-0.844l-2.152-13.628l-2.882,13.716c-0.085,0.403-0.408,0.713-0.814,0.781
		c-0.401,0.07-0.812-0.121-1.023-0.475l-2.11-3.545l-4.156,7.481c-0.177,0.318-0.513,0.514-0.874,0.514
		c-0.021,0-0.042,0-0.063-0.002c-0.385-0.024-0.722-0.269-0.865-0.626l-5.13-12.826l-4.031,8.868
		c-0.162,0.357-0.518,0.586-0.91,0.586H6.22c0.542,0.592,1.104,1.172,1.708,1.719l18.585,16.866L45.416,34.6
		c0.605-0.548,1.168-1.128,1.71-1.721H37.346z"/>
</g>
<g>
</g>
<g>
</g>
<g>
</g>
<g>
</g>
<g>
</g>
<g>
</g>
<g>
</g>
<g>
</g>
<g>
</g>
<g>
</g>
<g>
</g>
<g>
</g>
<g>
</g>
<g>
</g>
<g>
</g>
</svg>
